<?xml version="1.0" encoding="UTF-8"?>
<svg width="39px" height="39px" viewBox="0 0 39 39" version="1.1" xmlns="http://www.w3.org/2000/svg" xmlns:xlink="http://www.w3.org/1999/xlink">
    <!-- Generator: Sketch 52.6 (67491) - http://www.bohemiancoding.com/sketch -->
    <title>facebook_icon</title>
    <desc>Created with Sketch.</desc>
    <g id="Page-1" stroke="none" stroke-width="1" fill="none" fill-rule="evenodd">
        <g id="small_mobile" transform="translate(-231.000000, -1378.000000)">
            <g id="footer" transform="translate(0.000000, 1282.000000)">
                <g id="facebook_icon" transform="translate(233.000000, 98.000000)">
                    <circle id="Oval" stroke="#FFFFFF" stroke-width="3" cx="17.5" cy="17.5" r="17.5"></circle>
                    <path d="M22.9779805,10.4754492 L22.9779805,7.00105895 C22.8504098,7.00105895 22.7228049,7.00081993 22.5952341,7.0010931 C22.2880537,7.00177602 21.980839,7.00034188 21.6736244,7.00112724 C21.2989707,7.00208334 20.9243854,6.99955651 20.5496976,7.00116139 C20.2196049,7.00259554 19.8894098,6.9978492 19.5593512,7.00126383 C19.0610878,7.00641993 18.5881268,7.03090285 18.1102488,7.18480042 C17.6495122,7.33320042 17.2170488,7.59301993 16.8486098,7.90463944 C16.6352634,8.08506871 16.4377951,8.27830285 16.2589366,8.49311749 C16.1865122,8.58234188 16.119039,8.67511749 16.056039,8.77106871 C15.8669366,9.05895651 15.7175463,9.37559554 15.5927756,9.71128822 C15.5647415,9.78685407 15.5371854,9.86262481 15.5109268,9.93877115 C15.3185463,10.496176 15.3121951,11.1046297 15.3121951,11.690376 C15.3121951,11.7637224 15.3121951,11.8393565 15.3121951,11.9167321 C15.3121951,13.0771614 15.3121951,14.6242297 15.3121951,14.6242297 L12,14.6242297 L12,18.4486199 L15.1926829,18.4486199 L15.2780488,18.4486199 L15.2780488,28.0437419 L19.0682927,28.0437419 L19.0682927,18.3632541 L22.5084683,18.409659 L22.972278,14.6492931 L19.0852976,14.6413029 L19.0852976,11.7388638 C19.0852976,11.7388638 19.076761,10.501059 20.126761,10.4839858 L22.9779805,10.4754492 Z" id="fb" fill="#FFFFFF"></path>
                </g>
            </g>
        </g>
    </g>
</svg>