<?xml version="1.0" encoding="UTF-8"?>
<svg width="39px" height="39px" viewBox="0 0 39 39" version="1.1" xmlns="http://www.w3.org/2000/svg" xmlns:xlink="http://www.w3.org/1999/xlink">
    <!-- Generator: Sketch 52.6 (67491) - http://www.bohemiancoding.com/sketch -->
    <title>twitter_icon</title>
    <desc>Created with Sketch.</desc>
    <g id="Page-1" stroke="none" stroke-width="1" fill="none" fill-rule="evenodd">
        <g id="small_mobile" transform="translate(-171.000000, -1378.000000)">
            <g id="footer" transform="translate(0.000000, 1282.000000)">
                <g id="twitter_icon" transform="translate(173.000000, 98.000000)">
                    <path d="M26.6098722,10.8931268 C26.6098722,10.8931268 28.5735096,9.18211576 28.5112991,8.41857062 C28.5112991,8.41857062 26.2455923,9.44885102 25.747983,9.49485051 C25.747983,9.49485051 25.5904253,9.33072651 25.3325257,9.11493027 C25.2465344,9.04299819 25.1494353,8.96531617 25.0432041,8.88609055 C24.8465086,8.73740262 24.6394136,8.60963056 24.4243793,8.50138513 C24.3168808,8.44728171 24.207444,8.39800206 24.096479,8.35319887 C23.374144,8.02549114 22.5827773,7.94522358 21.8059849,8.03320917 C21.6949826,8.04578957 21.584353,8.06180449 21.474208,8.0809838 C20.1858284,8.28979522 19.0840057,9.09930125 18.3906327,10.2030187 C18.3283849,10.3037005 18.2706846,10.407045 18.2180908,10.5130136 C18.1130524,10.7249508 18.0284029,10.9473846 17.9688761,11.1794273 C17.9455053,11.2650974 17.9199352,11.364853 17.8958189,11.4713619 C17.8716652,11.5778708 17.8488908,11.6911329 17.831111,11.8038162 C17.7600293,12.254588 17.831111,13.7172327 17.831111,13.7172327 C17.831111,13.7172327 12.1001047,13.9012306 8.42156002,8.97052585 C8.42156002,8.97052585 6.60899458,12.5213619 9.73659064,15.0051025 C9.73659064,15.0051025 9.10054522,15.2994683 7.89916337,14.5635538 C7.89916337,14.5635538 7.30203212,17.2680301 11.176005,19.1262241 L9.29239506,19.1262241 C9.29239506,19.1262241 9.94991037,22.1251049 13.4507694,22.4010632 C13.4507694,22.4010632 11.7981099,24.7008059 7,24.3512175 C7,24.3512175 11.3290152,27.4675668 16.9061912,26.0212458 C17.0057504,25.9953904 17.1057568,25.9681071 17.206136,25.9393574 C18.0888615,25.6574562 18.9774017,25.326314 19.7844235,24.8822183 C19.8548343,24.8444385 19.9252824,24.8057326 19.995805,24.766139 C20.2074101,24.64759 20.4198725,24.5213616 20.633155,24.3873379 C20.633155,24.3873379 26.497118,21.0978731 26.9768731,12.598465 C26.9768731,12.598465 28.209267,11.8497771 29,10.414763 C29,10.4148016 26.7786867,10.9483107 26.6098722,10.8931268 Z" id="bird" fill="#FFFFFF"></path>
                    <circle id="Oval" stroke="#FFFFFF" stroke-width="3" cx="17.5" cy="17.5" r="17.5"></circle>
                </g>
            </g>
        </g>
    </g>
</svg>