<?xml version="1.0" encoding="UTF-8"?>
<svg width="42px" height="50px" viewBox="0 0 42 50" version="1.1" xmlns="http://www.w3.org/2000/svg" xmlns:xlink="http://www.w3.org/1999/xlink">
    <!-- Generator: Sketch 52.6 (67491) - http://www.bohemiancoding.com/sketch -->
    <title>CYCLE COPEN HAGEN</title>
    <desc>Created with Sketch.</desc>
    <g id="Page-1" stroke="none" stroke-width="1" fill="none" fill-rule="evenodd">
        <g id="small_mobile" transform="translate(-138.000000, -5.000000)" fill="#FFFFFF">
            <g id="header_bar">
                <path d="M144.696,14.346 L144.696,15.138 C144.696,15.534002 144.621001,15.9089982 144.471,16.263 C144.320999,16.6170018 144.114001,16.9319986 143.85,17.208 C143.585999,17.4840014 143.277002,17.7029992 142.923,17.865 C142.568998,18.0270008 142.188002,18.108 141.78,18.108 C141.431998,18.108 141.078002,18.0600005 140.718,17.964 C140.357998,17.8679995 140.034001,17.7000012 139.746,17.46 C139.457999,17.2199988 139.221001,16.9110019 139.035,16.533 C138.848999,16.1549981 138.756,15.6720029 138.756,15.084 L138.756,8.028 C138.756,7.6079979 138.827999,7.2180018 138.972,6.858 C139.116001,6.4979982 139.319999,6.18600132 139.584,5.922 C139.848001,5.65799868 140.162998,5.45100075 140.529,5.301 C140.895002,5.15099925 141.299998,5.076 141.744,5.076 C142.608004,5.076 143.309997,5.35799718 143.85,5.922 C144.114001,6.19800138 144.320999,6.52499811 144.471,6.903 C144.621001,7.28100189 144.696,7.69199778 144.696,8.136 L144.696,8.856 L142.86,8.856 L142.86,8.244 C142.86,7.8839982 142.758001,7.57200132 142.554,7.308 C142.349999,7.04399868 142.074002,6.912 141.726,6.912 C141.269998,6.912 140.967001,7.05299859 140.817,7.335 C140.666999,7.61700141 140.592,7.97399784 140.592,8.406 L140.592,14.958 C140.592,15.3300019 140.672999,15.6419987 140.835,15.894 C140.997001,16.1460013 141.287998,16.272 141.708,16.272 C141.828001,16.272 141.956999,16.2510002 142.095,16.209 C142.233001,16.1669998 142.361999,16.0980005 142.482,16.002 C142.590001,15.9059995 142.68,15.7740008 142.752,15.606 C142.824,15.4379992 142.86,15.2280013 142.86,14.976 L142.86,14.346 L144.696,14.346 Z M149.16,18 L149.16,12.582 L146.64,5.184 L148.584,5.184 L150.06,10.278 L150.096,10.278 L151.572,5.184 L153.516,5.184 L150.996,12.582 L150.996,18 L149.16,18 Z M161.526,14.346 L161.526,15.138 C161.526,15.534002 161.451001,15.9089982 161.301,16.263 C161.150999,16.6170018 160.944001,16.9319986 160.68,17.208 C160.415999,17.4840014 160.107002,17.7029992 159.753,17.865 C159.398998,18.0270008 159.018002,18.108 158.61,18.108 C158.261998,18.108 157.908002,18.0600005 157.548,17.964 C157.187998,17.8679995 156.864001,17.7000012 156.576,17.46 C156.287999,17.2199988 156.051001,16.9110019 155.865,16.533 C155.678999,16.1549981 155.586,15.6720029 155.586,15.084 L155.586,8.028 C155.586,7.6079979 155.657999,7.2180018 155.802,6.858 C155.946001,6.4979982 156.149999,6.18600132 156.414,5.922 C156.678001,5.65799868 156.992998,5.45100075 157.359,5.301 C157.725002,5.15099925 158.129998,5.076 158.574,5.076 C159.438004,5.076 160.139997,5.35799718 160.68,5.922 C160.944001,6.19800138 161.150999,6.52499811 161.301,6.903 C161.451001,7.28100189 161.526,7.69199778 161.526,8.136 L161.526,8.856 L159.69,8.856 L159.69,8.244 C159.69,7.8839982 159.588001,7.57200132 159.384,7.308 C159.179999,7.04399868 158.904002,6.912 158.556,6.912 C158.099998,6.912 157.797001,7.05299859 157.647,7.335 C157.496999,7.61700141 157.422,7.97399784 157.422,8.406 L157.422,14.958 C157.422,15.3300019 157.502999,15.6419987 157.665,15.894 C157.827001,16.1460013 158.117998,16.272 158.538,16.272 C158.658001,16.272 158.786999,16.2510002 158.925,16.209 C159.063001,16.1669998 159.191999,16.0980005 159.312,16.002 C159.420001,15.9059995 159.51,15.7740008 159.582,15.606 C159.654,15.4379992 159.69,15.2280013 159.69,14.976 L159.69,14.346 L161.526,14.346 Z M164.28,18 L164.28,5.184 L166.116,5.184 L166.116,16.164 L169.752,16.164 L169.752,18 L164.28,18 Z M172.2,18 L172.2,5.184 L177.672,5.184 L177.672,6.912 L174.036,6.912 L174.036,10.674 L177.204,10.674 L177.204,12.402 L174.036,12.402 L174.036,16.164 L177.672,16.164 L177.672,18 L172.2,18 Z M144.696,32.346 L144.696,33.138 C144.696,33.534002 144.621001,33.9089982 144.471,34.263 C144.320999,34.6170018 144.114001,34.9319986 143.85,35.208 C143.585999,35.4840014 143.277002,35.7029992 142.923,35.865 C142.568998,36.0270008 142.188002,36.108 141.78,36.108 C141.431998,36.108 141.078002,36.0600005 140.718,35.964 C140.357998,35.8679995 140.034001,35.7000012 139.746,35.46 C139.457999,35.2199988 139.221001,34.9110019 139.035,34.533 C138.848999,34.1549981 138.756,33.6720029 138.756,33.084 L138.756,26.028 C138.756,25.6079979 138.827999,25.2180018 138.972,24.858 C139.116001,24.4979982 139.319999,24.1860013 139.584,23.922 C139.848001,23.6579987 140.162998,23.4510007 140.529,23.301 C140.895002,23.1509992 141.299998,23.076 141.744,23.076 C142.608004,23.076 143.309997,23.3579972 143.85,23.922 C144.114001,24.1980014 144.320999,24.5249981 144.471,24.903 C144.621001,25.2810019 144.696,25.6919978 144.696,26.136 L144.696,26.856 L142.86,26.856 L142.86,26.244 C142.86,25.8839982 142.758001,25.5720013 142.554,25.308 C142.349999,25.0439987 142.074002,24.912 141.726,24.912 C141.269998,24.912 140.967001,25.0529986 140.817,25.335 C140.666999,25.6170014 140.592,25.9739978 140.592,26.406 L140.592,32.958 C140.592,33.3300019 140.672999,33.6419987 140.835,33.894 C140.997001,34.1460013 141.287998,34.272 141.708,34.272 C141.828001,34.272 141.956999,34.2510002 142.095,34.209 C142.233001,34.1669998 142.361999,34.0980005 142.482,34.002 C142.590001,33.9059995 142.68,33.7740008 142.752,33.606 C142.824,33.4379992 142.86,33.2280013 142.86,32.976 L142.86,32.346 L144.696,32.346 Z M147.342,26.208 C147.342,25.6919974 147.431999,25.236002 147.612,24.84 C147.792001,24.443998 148.031998,24.1140013 148.332,23.85 C148.620001,23.5979987 148.946998,23.4060007 149.313,23.274 C149.679002,23.1419993 150.047998,23.076 150.42,23.076 C150.792002,23.076 151.160998,23.1419993 151.527,23.274 C151.893002,23.4060007 152.225999,23.5979987 152.526,23.85 C152.814001,24.1140013 153.047999,24.443998 153.228,24.84 C153.408001,25.236002 153.498,25.6919974 153.498,26.208 L153.498,32.976 C153.498,33.5160027 153.408001,33.9779981 153.228,34.362 C153.047999,34.7460019 152.814001,35.0639987 152.526,35.316 C152.225999,35.5800013 151.893002,35.7779993 151.527,35.91 C151.160998,36.0420007 150.792002,36.108 150.42,36.108 C150.047998,36.108 149.679002,36.0420007 149.313,35.91 C148.946998,35.7779993 148.620001,35.5800013 148.332,35.316 C148.031998,35.0639987 147.792001,34.7460019 147.612,34.362 C147.431999,33.9779981 147.342,33.5160027 147.342,32.976 L147.342,26.208 Z M149.178,32.976 C149.178,33.4200022 149.300999,33.7469989 149.547,33.957 C149.793001,34.167001 150.083998,34.272 150.42,34.272 C150.756002,34.272 151.046999,34.167001 151.293,33.957 C151.539001,33.7469989 151.662,33.4200022 151.662,32.976 L151.662,26.208 C151.662,25.7639978 151.539001,25.437001 151.293,25.227 C151.046999,25.0169989 150.756002,24.912 150.42,24.912 C150.083998,24.912 149.793001,25.0169989 149.547,25.227 C149.300999,25.437001 149.178,25.7639978 149.178,26.208 L149.178,32.976 Z M156.378,36 L156.378,23.184 L159.132,23.184 C159.636003,23.184 160.079998,23.2499993 160.464,23.382 C160.848002,23.5140007 161.195998,23.7479983 161.508,24.084 C161.820002,24.4200017 162.035999,24.8129978 162.156,25.263 C162.276001,25.7130022 162.336,26.3219962 162.336,27.09 C162.336,27.6660029 162.303,28.151998 162.237,28.548 C162.171,28.944002 162.030001,29.3159983 161.814,29.664 C161.561999,30.0840021 161.226002,30.4109988 160.806,30.645 C160.385998,30.8790012 159.834003,30.996 159.15,30.996 L158.214,30.996 L158.214,36 L156.378,36 Z M158.214,24.912 L158.214,29.268 L159.096,29.268 C159.468002,29.268 159.755999,29.2140005 159.96,29.106 C160.164001,28.9979995 160.314,28.848001 160.41,28.656 C160.506,28.4759991 160.563,28.2540013 160.581,27.99 C160.599,27.7259987 160.608,27.4320016 160.608,27.108 C160.608,26.8079985 160.602,26.5230014 160.59,26.253 C160.578,25.9829986 160.524,25.746001 160.428,25.542 C160.332,25.337999 160.188001,25.1820005 159.996,25.074 C159.803999,24.9659995 159.528002,24.912 159.168,24.912 L158.214,24.912 Z M164.964,36 L164.964,23.184 L170.436,23.184 L170.436,24.912 L166.8,24.912 L166.8,28.674 L169.968,28.674 L169.968,30.402 L166.8,30.402 L166.8,34.164 L170.436,34.164 L170.436,36 L164.964,36 Z M172.812,36 L172.812,23.184 L174.576,23.184 L177.348,30.906 L177.384,30.906 L177.384,23.184 L179.22,23.184 L179.22,36 L177.492,36 L174.684,28.296 L174.648,28.296 L174.648,36 L172.812,36 Z M138.864,54 L138.864,41.184 L140.7,41.184 L140.7,46.674 L142.968,46.674 L142.968,41.184 L144.804,41.184 L144.804,54 L142.968,54 L142.968,48.294 L140.7,48.294 L140.7,54 L138.864,54 Z M151.5,49.518 L150.6,44.874 L150.564,44.874 L149.664,49.518 L151.5,49.518 Z M146.964,54 L149.826,41.184 L151.356,41.184 L154.218,54 L152.382,54 L151.842,51.246 L149.34,51.246 L148.8,54 L146.964,54 Z M156.27,44.208 C156.27,43.6919974 156.359999,43.236002 156.54,42.84 C156.720001,42.443998 156.959999,42.1140013 157.26,41.85 C157.548001,41.5979987 157.874998,41.4060007 158.241,41.274 C158.607002,41.1419993 158.975998,41.076 159.348,41.076 C159.720002,41.076 160.088998,41.1419993 160.455,41.274 C160.821002,41.4060007 161.153999,41.5979987 161.454,41.85 C161.742001,42.1140013 161.975999,42.443998 162.156,42.84 C162.336001,43.236002 162.426,43.6919974 162.426,44.208 L162.426,44.856 L160.59,44.856 L160.59,44.208 C160.59,43.7639978 160.467001,43.437001 160.221,43.227 C159.974999,43.016999 159.684002,42.912 159.348,42.912 C159.011998,42.912 158.721001,43.016999 158.475,43.227 C158.228999,43.437001 158.106,43.7639978 158.106,44.208 L158.106,50.976 C158.106,51.4200022 158.228999,51.7469989 158.475,51.957 C158.721001,52.167001 159.011998,52.272 159.348,52.272 C159.684002,52.272 159.974999,52.167001 160.221,51.957 C160.467001,51.7469989 160.59,51.4200022 160.59,50.976 L160.59,48.564 L159.132,48.564 L159.132,46.944 L162.426,46.944 L162.426,50.976 C162.426,51.5160027 162.336001,51.9779981 162.156,52.362 C161.975999,52.7460019 161.742001,53.0639987 161.454,53.316 C161.153999,53.5800013 160.821002,53.7779993 160.455,53.91 C160.088998,54.0420007 159.720002,54.108 159.348,54.108 C158.975998,54.108 158.607002,54.0420007 158.241,53.91 C157.874998,53.7779993 157.548001,53.5800013 157.26,53.316 C156.959999,53.0639987 156.720001,52.7460019 156.54,52.362 C156.359999,51.9779981 156.27,51.5160027 156.27,50.976 L156.27,44.208 Z M165.306,54 L165.306,41.184 L170.778,41.184 L170.778,42.912 L167.142,42.912 L167.142,46.674 L170.31,46.674 L170.31,48.402 L167.142,48.402 L167.142,52.164 L170.778,52.164 L170.778,54 L165.306,54 Z M173.154,54 L173.154,41.184 L174.918,41.184 L177.69,48.906 L177.726,48.906 L177.726,41.184 L179.562,41.184 L179.562,54 L177.834,54 L175.026,46.296 L174.99,46.296 L174.99,54 L173.154,54 Z" id="CYCLE-COPEN-HAGEN"></path>
            </g>
        </g>
    </g>
</svg>