<?xml version="1.0" encoding="UTF-8"?>
<svg width="320px" height="361px" viewBox="0 0 320 361" version="1.1" xmlns="http://www.w3.org/2000/svg" xmlns:xlink="http://www.w3.org/1999/xlink">
    <!-- Generator: Sketch 52.6 (67491) - http://www.bohemiancoding.com/sketch -->
    <title>map</title>
    <desc>Created with Sketch.</desc>
    <g id="Page-1" stroke="none" stroke-width="1" fill="none" fill-rule="evenodd">
        <g id="small_mobile" transform="translate(0.000000, -922.000000)">
            <g id="map" transform="translate(0.000000, 923.000000)">
                <rect id="Rectangle" fill="#CEC5AA" x="0" y="1" width="320" height="358"></rect>
                <path d="M81.6054687,180.157227 C82.4528919,175.71382 79.8875758,177.003407 81.6054688,172.134277 C83.3233617,167.265147 83.7344068,165.762819 87.5313495,163.380859 C91.3282922,160.9989 95.5527135,162.154615 96.7060547,162.661133 C97.8593959,163.167651 98.784668,166.257812 96.7060547,167.410156 C94.6274414,168.5625 90.1017415,167.15601 87.5309002,172.134277 C84.9600589,177.112544 88.1394488,182.170464 87.5309002,185.177246 C86.9223515,188.184028 85.0743815,190.221191 83.4155273,190.221191 C81.7566732,190.221191 78.8735434,189.842185 78.4082031,187.254883 C77.9428629,184.667581 80.7580456,184.600633 81.6054687,180.157227 Z" id="Path-4" fill="#AAC8CE"></path>
                <path d="M216.585449,246.315674 L241.182617,226.875 C248.425801,219.510833 253.319681,213.989023 255.864258,210.30957 C259.681122,204.790391 262.85083,195.489502 264.62915,189.676025 C266.111268,184.830861 271.110498,174.553521 270.99933,169.534481 C270.977113,168.53142 269.29854,167.691268 268.924805,168.302979 C267.650065,170.389404 263.068766,179.283529 255.180908,194.985352 L252.087158,193.24707 C273.272217,138.978027 283.864746,110.168701 283.864746,106.819092 C283.864746,103.469482 283.061198,99.7296549 281.454102,95.5996094 C282.099905,93.1770574 282.794241,91.9356837 283.537109,91.8754883 C284.279978,91.8152929 285.694691,92.8857682 287.78125,95.0869141 C290.87028,78.1207682 291.799967,70.0351562 290.570313,70.8300781 C289.340658,71.625 287.428792,70.6604818 284.834717,67.9365234 L286.27832,47.5849609 C289.815215,45.7709262 292.194446,42.7123325 293.416016,38.4091797 C294.637585,34.1060269 294.637585,28.7834358 293.416016,22.4414062 L290.570313,18.3066406 L290.570313,1.05981445 L320.32373,1.05981445 L320,121.139648 L317.423828,121.139648 L317.423828,142.904297 L320,146.730469 L315.448242,157.935547 L320,161.46875 L320,165.021484 L313.696289,161.46875 L312.198242,165.021484 C304.052734,160.297526 299.284505,157.935547 297.893555,157.935547 C296.502604,157.935547 294.330404,162.329183 291.376953,171.116455 C291.305619,159.30147 290.890674,152.762015 290.13212,151.49809 C289.82744,150.990423 288.45331,150.922897 288.276611,151.49809 C287.94637,152.573094 287.78125,160.466309 287.78125,175.177734 L284.373047,184 C285.076497,185.407878 285.428223,186.963379 285.428223,188.666504 C285.428223,191.221191 279.527832,206.296387 273.859863,214.407715 C270.701354,218.9278 246.503662,244.07959 226.312256,259.715332 C224.851415,260.436639 220.331055,252.502686 218.700439,251.244141 C217.613363,250.405111 216.447103,249.985596 215.20166,249.985596 C215.017788,248.444601 214.708381,247.221294 214.273437,246.315674 C214.086173,245.925761 214.856844,245.925761 216.585449,246.315674 Z" id="Path-5" fill="#AAC8CE"></path>
                <path d="M241.853027,33.7255859 C240.062012,34.2138672 238.934245,40.8286133 238.469727,53.5698242 C231.099935,58.9132487 227.415039,62.4545898 227.415039,64.1938477 C227.415039,65.9331055 231.099935,69.8639323 238.469727,75.9863281 C241.326497,90.2757161 243.349772,97.4204102 244.539551,97.4204102 C245.729329,97.4204102 250.498047,94.59375 258.845703,88.9404297 L264.521973,90.921875 L263.015625,97.4204102 L257.660645,94.0927734 L246.606934,105.435547 L248.089844,108.106445 L257.660645,98.3730469 C260.258952,100.974935 262.291504,102.038249 263.758301,101.562988 C265.225098,101.087728 266.730794,97.8076172 268.275391,91.7226562 L276.060059,91.7226562 L276.060059,87.9785156 L264.521973,86.0947266 L263.015625,83.8710937 L255.699219,86.0947266 L255.699219,87.9785156 L246.606934,93.3276367 L241.853027,79.3603516 L244.539551,76.9345703 L240.752441,72.3720703 L239.288086,72.3720703 L230.814453,64.1938477 L238.469727,56.5712891 L241.853027,57.2949219 L244.539551,52.3564453 L241.853027,50.2583008 L244.539551,38.8232422 L254.208984,45.7983398 C254.208984,47.4152018 254.208984,48.2236328 254.208984,48.2236328 C254.208984,48.2236328 256.178548,48.9018555 260.117676,50.2583008 L261.558105,48.2236328 L276.060059,47.2172852 L272.891113,61.5849609 L270.230957,62.5166016 L271.477539,69.6328125 L273.782715,70.9160156 L276.060059,87.9785156 C277.4938,84.6448999 278.354965,82.0251082 278.643555,80.1191406 C278.932144,78.213173 278.932144,75.1454647 278.643555,70.9160156 C276.047949,69.2766112 274.683203,67.655843 274.549316,66.0537109 C274.41543,64.4515789 275.499902,62.718506 277.802734,60.8544922 C279.525065,51.8395182 279.805339,46.5672201 278.643555,45.0375977 C277.481771,43.5079753 270.882487,43.5079753 258.845703,45.0375977 C249.308268,37.0079753 243.644043,33.2373047 241.853027,33.7255859 Z" id="Path-8" fill="#AAC8CE"></path>
                <path d="M229.811035,42 C228.415853,41.5205078 226.969238,43.2247721 225.471191,47.112793 L227.641113,53.9936523 C221.303223,58.699707 218.134277,61.7919922 218.134277,63.2705078 C218.134277,64.7490234 222.02653,68.7862956 229.811035,75.3823242 L228.790527,80.0424805 C228.840984,81.3239378 229.038087,82.256555 229.381836,82.840332 C229.725585,83.424109 230.222167,83.6695517 230.871582,83.5766602 L235.656738,85.9438477 L238.455078,94.5478516 L240.629395,93.0576172 L237.166504,84.7954102 L231.903809,81.8930664 L231.903809,74.0146484 L220.804688,63.2705078 L230.871582,53.9936523 L227.641113,48.4375 L231.903809,45.9047852 C231.903809,43.7810872 231.206217,42.4794922 229.811035,42 Z" id="Path-7" fill="#AAC8CE"></path>
                <path d="M153.109375,83.609375 C151.00236,84.2012293 151.00236,87.5629883 153.109375,88.2441406 C155.21639,88.925293 165.97998,89.7026367 167.640625,88.2441406 C169.30127,86.7856445 167.557129,77.8662109 169.30127,76.4257813 C171.04541,74.9853516 179.261954,78.6362173 183.358398,76.4257813 C184.423503,75.4654948 186.355957,71.5504557 189.155762,64.6806641 C192.649552,63.0619468 194.228003,61.7414716 193.891113,60.7192383 C193.385779,59.1858883 189.663363,59.6206552 187.206543,60.7192383 C185.083681,61.6684902 184.09133,63.7135748 184.229492,66.8544922 C174.037676,65.4052734 168.508054,64.6806641 167.640625,64.6806641 C166.773196,64.6806641 166.773196,65.4052734 167.640625,66.8544922 L183.358398,69.2231445 L183.358398,75.8745117 C171.789388,71.8611654 165.523763,70.3917643 164.561523,71.4663086 C163.118164,73.078125 166.745117,83.0649414 165.301758,84.8193359 C163.858398,86.5737305 155.21639,83.0175207 153.109375,83.609375 Z" id="Path-10" fill="#AAC8CE"></path>
                <path d="M132.245117,96.0229837 C130.121711,97.9674385 132.035719,98.8197858 129.554199,106.487339 C127.072679,114.154893 126.724554,116.800716 124.365234,118.687535 C122.005915,120.574353 120.113281,115.751011 117.970703,115.751011 C115.828125,115.751011 113,115.751011 113,119.959019 C113,124.167027 115.53034,127.609794 121.874023,127.0098 C128.217707,126.409807 130.519541,123.72414 133.385254,119.959019 C136.250967,116.193898 134.724179,111.949529 135.737793,108.001499 C136.751406,104.053469 137.697274,99.4135385 137.291992,97.2744486 C136.88671,95.1353586 134.368523,94.078529 132.245117,96.0229837 Z" id="Path-9" fill="#AAC8CE"></path>
                <path d="M266.344727,312.123047 L276.294434,329.828125 C288.645215,323.034909 297.705273,317.818275 303.474609,314.178223 C309.243945,310.53817 314.752409,306.563072 320,302.25293 L320,280.957031 C316.966236,281.905874 314.274667,283.113231 311.925293,284.579102 C305.643555,288.498535 311.087906,293.972771 305.643555,296.278809 C300.199204,298.584846 297.136279,291.181261 290.773926,293.538086 C284.411573,295.894911 286.731995,302.319654 281.040527,305.392578 C276.294434,307.955078 276.406169,304.522916 272.218262,306.440918 C269.426324,307.719586 267.468478,309.613629 266.344727,312.123047 Z" id="Path-12" fill="#AAC8CE"></path>
                <path d="M182.871094,327.337891 L192.695312,313.169922 L203.933594,320.253906 C203.982829,326.916586 205.374756,330.381104 208.109375,330.647461 C212.211303,331.046996 214.891333,321.908691 220.922852,321.908691 C226.95437,321.908691 227.413016,330.647461 232.473633,330.647461 C237.534249,330.647461 241.138712,320.547228 244.120605,319.588867 C247.102499,318.630507 246.536133,324.610352 251.257812,324.610352 C255.979492,324.610352 254.992676,313.584961 259.752441,316.92334 C262.925618,319.148926 265.815918,324.467936 268.42334,332.880371 C244.580855,338.873261 228.747359,342.139374 220.922852,342.678711 C209.18609,343.487716 207.993966,341.989629 197.521484,337.767578 C190.53983,334.952877 185.656366,331.476315 182.871094,327.337891 Z" id="Path-11" fill="#AAC8CE"></path>
                <path d="M211.021973,245.013184 L211.739258,248.870117 L198.344727,243.645508 L180.5,235.967773 L166.040039,229.927246 C163.829648,228.987898 162.024798,228.987898 160.625488,229.927246 C152.506679,235.377355 145.604492,239.631836 145.604492,243.645508 C145.604492,246.321289 152.416341,256.738281 166.040039,274.896484 L177.015137,286.893555 L172.848633,292.30127 L156.375977,270.369141 C145.125326,255.064128 139.779297,245.815592 140.337891,242.623535 C145.604492,234.722656 148.932299,232.166469 159.35791,226.080566 C163.101977,223.894985 165.023668,225.800479 169.98291,227.175781 C175.771973,229.010091 181.862956,231.695964 188.255859,235.233398 L211.021973,245.013184 Z" id="Path-6" fill="#AAC8CE"></path>
                <polygon id="Path-13" fill="#AAC8CE" points="164.388672 302 175.22168 288.157227 193.649902 271.838867 210.95752 259.385742 217.716309 267.771484 191.05249 293.416504 175.22168 313.839355"></polygon>
                <path d="M158.071289,309.382812 C162.652344,313.855469 166.253255,317.739909 168.874023,321.036133 C168.874023,323.929688 160.6192,331.665381 153.370605,342.728516 C149.91166,348.007715 146.788125,353.431543 144,359 L108.25293,359 C115.576367,352.654483 122.616894,346.11656 129.374512,339.38623 C139.223014,329.577497 148.788607,319.576358 158.071289,309.382812 Z" id="Path-14" fill="#AAC8CE"></path>
                <polygon id="Path-2" fill="#AAC8CE" points="105.744141 47.1923828 116.974609 60.6699219 165.785156 0.733398438 142.898438 0.733398438"></polygon>
                <polygon id="Path-15" fill="#AAC8CE" points="101.770508 52.1171875 112.742188 65.4326172 78.7373047 109.050781 64.4326172 97.9091797"></polygon>
                <polygon id="Path-16" fill="#AAC8CE" points="59.7636719 103.757812 75.0664062 115.448242 54.5703125 162.708008 36.9912109 149.813477"></polygon>
                <polygon id="Path-17" fill="#AAC8CE" points="33.3125 164.091797 48.6552734 173.568359 45.6171875 201.318359 28.2998047 199.958984"></polygon>
                <polygon id="Path-18" fill="#AAC8CE" points="26.5527344 210.157227 43.4589844 216.889648 39.8867188 243.303711 19.7705078 241.264648"></polygon>
                <polyline id="Path-25" stroke="#DEDEDE" stroke-width="2" points="55.1962891 169.581055 80 114.108398 119 66.2177734"></polyline>
                <polyline id="Path-26" stroke="#DEDEDE" stroke-width="2" points="129.49707 1 95 37 52.4804688 92.0751953 43.5449219 85.9599609 52.4804688 55.7666016 106 1"></polyline>
                <path d="M52.7558594,55.4140625 L55.8691406,1" id="Path-27" stroke="#DEDEDE" stroke-width="2"></path>
                <polyline id="Path-28" stroke="#DEDEDE" stroke-width="2" points="0 88.8886719 15.8730469 57.2529297 54.6621094 19.5048828"></polyline>
                <path d="M0,112.869141 L30.1484375,156.791016 C25.4290365,164.342448 21.8212891,171.804688 19.3251953,179.177734 C15.5810547,190.237305 19.2910156,203.769531 15.2539062,216.265625 C12.5625,224.596354 7.47786458,235.922526 0,250.244141 C14.300863,254.668926 25.1755375,256.334616 32.6240234,255.241211 C40.0725094,254.147806 50.9471839,249.289408 65.2480469,240.666016" id="Path-29" stroke="#DEDEDE" stroke-width="2"></path>
                <polyline id="Path-30" stroke="#DEDEDE" stroke-width="2" points="0 342.335938 70.2636719 289.539062 53.2773438 247.93457"></polyline>
                <path d="M68.4833984,283.738281 L74.4648438,278.810547 C71.5272716,270.923963 69.5334565,264.850069 68.4833984,260.588867 C67.4333403,256.327665 66.3548898,249.93411 65.2480469,241.408203 C63.4715932,229.947084 62.8478953,221.196108 63.3769531,215.155273 C63.906011,209.114439 66.0658417,200.325702 69.8564453,188.789062 L98.6269531,127.630859 L134.271484,80.8984375" id="Path-31" stroke="#DEDEDE" stroke-width="2"></path>
                <path d="M17.2431641,200.259766 L63.2470703,214.816406" id="Path-32" stroke="#DEDEDE" stroke-width="2"></path>
                <path d="M0,267.383789 C11.8681512,271.83226 21.1747918,273.559148 27.9199219,272.564453 C34.6650519,271.569758 44.5384243,267.014419 57.5400391,258.898438 L100.520388,238.922852" id="Path-33" stroke="#DEDEDE" stroke-width="2"></path>
                <path d="M95,359 C100.775994,352.384048 110.436476,342.348892 123.981445,328.894531 C144.298899,308.71299 172.509766,277.99707 186.094727,268.514648 C195.151367,262.193034 204.536133,257.68099 214.249023,254.978516 C190.283529,244.195964 176.027344,237.021159 171.480469,233.454102 C169.017916,231.522211 169.515625,226.70342 169.515625,224.490234 C169.515625,216.196615 181.286784,211.481445 204.829102,210.344727" id="Path-34" stroke="#DEDEDE" stroke-width="2"></path>
                <path d="M213.323242,242.749023 C230.309873,230.809556 242.535459,220.111965 250,210.65625 C257.464541,201.200535 263.500999,188.764663 268.109375,173.348633" id="Path-35" stroke="#DEDEDE" stroke-width="2"></path>
                <path d="M0,313.842773 L72.8916016,273.87793" id="Path-36" stroke="#DEDEDE" stroke-width="2"></path>
                <path d="M123.28125,327.922852 C87.4759115,270.155273 69.5732422,236.567383 69.5732422,227.15918 C69.5732422,217.750977 73.0488281,210.37793 80,205.040039 C90.9692461,191.515324 99.0425921,181.150415 104.220038,173.945313 C109.397484,166.74021 116.332927,156.2184 125.026367,142.379883 L158.611328,101.984375 C165.779912,94.6821168 173.076136,88.6977418 180.5,84.03125 C185.998417,80.5750556 195.202906,78.9879754 204.915039,74.4169922 C207.182382,73.3498745 210.308685,70.8720099 214.293945,66.9833984" id="Path-37" stroke="#DEDEDE" stroke-width="2"></path>
                <path d="M65.2480469,0.484375 C90.1557212,34.6738028 110.826294,59.5247143 127.259766,75.0371094 C143.693237,90.5495044 170.83256,110.828801 208.677734,135.875" id="Path-19" stroke="#DEDEDE" stroke-width="3"></path>
                <path d="M0,37 C15.9648437,60.2942708 38.6777344,83.3001302 68.1386719,106.017578 C97.5996094,128.735026 159.036458,163.026693 252.449219,208.892578" id="Path-20" stroke="#DEDEDE" stroke-width="3"></path>
                <path d="M169.515625,1.33007812 L169.515625,12.8203125 C187.940104,33.3841146 201.004557,48.7128906 208.708984,58.8066406 C216.413411,68.9003906 228.923828,86.4830729 246.240234,111.554688 L280.128906,103.679687" id="Path-21" stroke="#DEDEDE" stroke-width="2"></path>
                <path d="M169.880859,11.7871094 L134.271484,80.8984375 L195.992188,42 L232.585938,3 L239,3 C244.128906,8.85807292 245.132161,15.6588542 242.009766,23.4023437 C238.88737,31.1458333 227.630208,42.6422526 208.238281,57.8916016" id="Path-22" stroke="#DEDEDE" stroke-width="2"></path>
                <path d="M0,152.984375 C4.92716148,156.55149 9.04011721,158.578508 12.3388672,159.06543 C17.4468313,159.819406 24.6455078,154.69043 29.0166016,156.649414 C46.0185963,164.269164 45.4892578,162.485352 56.2470703,171.606445 C75.8701118,188.243991 85.4557077,220.2685 99.9707031,238.871094 C118.806495,263.011273 128.155128,270.457401 158.386719,301.305664 C180.482276,323.851932 178.802734,332.115234 204.625,345.660156 C213.886196,350.518064 225.287404,348.554026 233.438477,347.321289 C248.014401,345.116881 258.996727,339.354823 276.642578,335.166016 C292.112832,334.616085 307.5933,336.710486 323.083984,341.449219" id="Path-23" stroke="#DEDEDE" stroke-width="3"></path>
                <path d="M199.679688,182.806641 C207.279622,221.046549 212.334798,244.983887 214.845215,254.618652 C221.626465,267.73877 250.262695,294.706055 259.277344,307.183594 C265.287109,315.501953 275.002604,332.774089 288.423828,359" id="Path-24" stroke="#DEDEDE" stroke-width="3"></path>
                <path d="M97.2060547,183.726562 C100.246873,195.619611 105.461717,207.001773 112.850586,217.873047 C120.239455,228.744321 128.903843,237.782733 138.84375,244.988281" id="Path-38" stroke="#DEDEDE" stroke-width="2"></path>
                <path d="M22.3076172,65.234375 L2.76464844,116.756836" id="Path-39" stroke="#DEDEDE" stroke-width="2"></path>
                <path d="M29.3125,155.755859 L58.0244141,97.2314453" id="Path-40" stroke="#DEDEDE" stroke-width="3"></path>
                <path d="M9.95605469,99.6796875 C9.89177387,100.34842 12.6740004,103.066194 18.3027344,107.833008 C23.9314683,112.599822 32.3500881,119.367726 43.5585937,128.136719" id="Path-41" stroke="#DEDEDE" stroke-width="2"></path>
                <path d="M214.463867,67.0654297 L169.991211,167.192383" id="Path-42" stroke="#DEDEDE" stroke-width="2"></path>
                <path d="M246.448242,111.334961 L213.010742,188.996094" id="Path-43" stroke="#DEDEDE" stroke-width="2"></path>
                <polyline id="Path-44" stroke="#DEDEDE" stroke-width="2" points="214.642578 67.6855469 228.535156 115.181641 202.413086 183.487305 188.929688 176.918945 224.114258 102.068359"></polyline>
                <path d="M221.448242,168.621094 L239,177.857422" id="Path-45" stroke="#DEDEDE" stroke-width="2"></path>
                <polyline id="Path-46" stroke="#DEDEDE" stroke-width="2" points="227.089844 207.430664 271.726562 98.2167969 277 94.6503906"></polyline>
                <polyline id="Path-47" stroke="#DEDEDE" stroke-width="2" points="260 125.12793 268.046875 128.587891 239 201.244141"></polyline>
                <path d="M284.673828,261.899414 C261.557943,291.765951 245.24056,310.640299 235.72168,318.522461 C227.747721,318.522461 214.660807,314.58138 196.460938,306.699219 L245.550781,254.500977" id="Path-48" stroke="#DEDEDE" stroke-width="2"></path>
                <path d="M111,214.59668 L123.961914,206.766602 L114.963379,160.297363 C123.956818,166.225271 131.280223,169.470876 136.933594,170.03418 C142.586965,170.597483 150.655324,168.922841 161.138672,165.010254 L123.961914,206.766602" id="Path-49" stroke="#DEDEDE" stroke-width="2"></path>
                <g id="flags" transform="translate(35.000000, 23.000000)" fill="#BB3939" stroke="#BB3939">
                    <polygon id="Path-50" points="89.09375 115.802734 85.0839844 98 77 106.901367 87.5849609 109.347168"></polygon>
                    <polygon id="Path-50" points="162.09375 17.8027344 158.083984 0 150 8.90136719 160.584961 11.347168"></polygon>
                    <polygon id="Path-50" points="44.09375 180.802734 40.0839844 163 32 171.901367 42.5849609 174.347168"></polygon>
                    <polygon id="Path-50" points="12.09375 86.8027344 8.08398438 69 0 77.9013672 10.5849609 80.347168"></polygon>
                    <polygon id="Path-50" points="175.09375 283.802734 171.083984 266 163 274.901367 173.584961 277.347168"></polygon>
                    <polygon id="Path-50" points="31.09375 264.802734 27.0839844 247 19 255.901367 29.5849609 258.347168"></polygon>
                    <polygon id="Path-50" points="56.09375 17.8027344 52.0839844 0 44 8.90136719 54.5849609 11.347168"></polygon>
                    <polygon id="Path-50" points="181.09375 50.8027344 177.083984 33 169 41.9013672 179.584961 44.347168"></polygon>
                </g>
            </g>
        </g>
    </g>
</svg>